# xmcd
#
# Track frame offsets:
#	187
#	23480
#	44547
#	59977
#	79712
#	103960
#	118890
#	140200
#	165387
#	185697
#	204977
#	231622
#	249130
#	258445
#	273077
#	302152
#
# Disc length: 4179 seconds
#
# Revision: 1
# Processed by: cddbd v1.5.1PL0 Copyright (c) Steve Scherf et al.
# Submitted via: CDex 1.50Beta5
#
DISCID=eb105110
DTITLE=泉谷しげる - ケース・バイ・ケース1987〜1991
DYEAR=1991
DGENRE=Pop
TTITLE0=野性のバラッド
TTITLE1=長い友との始まりに
TTITLE2=眠れない夜
TTITLE3=つなひき
TTITLE4=春夏秋冬
TTITLE5=デトロイトポーカー
TTITLE6=流れゆく君へ
TTITLE7=ハレルヤ
TTITLE8=流血のならわし
TTITLE9=永遠の壁
TTITLE10=愛を黙して
TTITLE11=極楽楽士
TTITLE12=1900’S
TTITLE13=を唄わないで
TTITLE14=翼なき野郎ども
TTITLE15=黒いカバン
EXTD=
EXTT0=
EXTT1=
EXTT2=
EXTT3=
EXTT4=
EXTT5=
EXTT6=
EXTT7=
EXTT8=
EXTT9=
EXTT10=
EXTT11=
EXTT12=
EXTT13=
EXTT14=
EXTT15=
PLAYORDER=
